MoBL_ARMS_shoulder_elvation_states	
version=1	
nRows=252	
nColumns=2	
inDegrees=yes	
	
# SIMM Motion File Header:	
name MoBL_ARMS_shoulder_elvation_states	
datacolumns 2	
datarows 252	
otherdata 1	
range 3.751324315 4.29525426	
endheader	
time	shoulder_elv
3.751324315	10.25108173
3.753723691	10.42233909
3.756123066	10.59297279
3.758086028	10.73208676
3.76004899	10.87076533
3.762559389	11.04746284
3.765069789	11.22341538
3.766963399	11.35562621
3.76885701	11.48739816
3.771448343	11.66699009
3.77376655	11.82692742
3.776084758	11.98615902
3.778057392	12.12109763
3.780030027	12.25550862
3.782455806	12.42006967
3.784881586	12.58380976
3.786811195	12.71347047
3.788740805	12.84259576
3.791254006	13.00996785
3.793767207	13.17640802
3.795568416	13.29512142
3.797369625	13.4133429
3.800126794	13.59335182
3.802467976	13.74527771
3.804809158	13.89635017
3.806758135	14.02144737
3.808707113	14.14594045
3.811138433	14.30037984
3.813569753	14.45385647
3.815487481	14.57421873
3.817405208	14.69397083
3.819896695	14.8486233
3.822388181	15.00222301
3.824232768	15.11524927
3.826077355	15.22768921
3.828645091	15.38321714
3.831212826	15.53758463
3.833060478	15.64793069
3.834908131	15.75766734
3.837446185	15.90739923
3.83998424	16.05595849
3.841838329	16.16372956
3.843692419	16.27086664
3.846217762	16.41575674
3.848743105	16.55944982
3.850588502	16.66368438
3.852433899	16.7672722
3.854971794	16.908661
3.857509689	17.04880638
3.859365785	17.15050255
3.86122188	17.25152644
3.863743542	17.38768451
3.866265204	17.52258267
3.868100914	17.61998128
3.869936624	17.71670575
3.872458201	17.84845602
3.874979778	17.97891602
3.876838343	18.07423612
3.878696908	18.16884902
3.881202307	18.29525736
3.883707707	18.42036369
3.885541637	18.51110386
3.887375567	18.60114091
3.889898594	18.7238469
3.892421621	18.84520531
3.894276639	18.93356172
3.896131658	19.02118436
3.898628725	19.13796295
3.901125792	19.25339646
3.90296327	19.33746914
3.904800748	19.42080873
3.907307361	19.5333026
3.909813974	19.64441725
3.911663194	19.72549619
3.913512413	19.8058201
3.91600694	19.91296553
3.918501467	20.01872289
3.920339363	20.09574377
3.922177258	20.1720072
3.924673981	20.27438332
3.927170704	20.37534806
3.929021311	20.449264
3.930871918	20.52240088
3.933356311	20.61934864
3.935840703	20.71487966
3.937678065	20.78460987
3.939515427	20.85356194
3.942005293	20.94574794
3.944495159	21.03649275
3.946345387	21.10298274
3.948195614	21.16867398
3.950674056	21.25540684
3.953152497	21.34069503
3.954990034	21.40298663
3.95682757	21.46448153
3.959311345	21.54632631
3.96179512	21.62670449
3.963645646	21.68562762
3.965496173	21.7437344
3.967966422	21.82001771
3.970436671	21.89483614
3.972276133	21.94958911
3.974115594	22.00352787
3.976592966	22.07487509
3.979070338	22.1447357
3.980919663	22.19590809
3.982768988	22.24625048
3.985234503	22.31206573
3.987700018	22.37639666
3.989541203	22.42346091
3.991382388	22.46969607
3.993853734	22.5304424
3.996325079	22.58968641
3.998173721	22.63301234
4.000022362	22.67549666
4.002483951	22.73075119
4.004945539	22.78450552
4.006787862	22.82374726
4.008630184	22.86214796
4.011096756	22.91223406
4.013563329	22.96080513
4.015411461	22.99619738
4.017259594	23.03073871
4.019718189	23.07536129
4.022176784	23.11847105
4.024019782	23.14978706
4.025862779	23.18025289
4.028325579	23.21962826
4.030788379	23.25747904
4.032636444	23.28487325
4.03448451	23.31140922
4.036940589	23.34533841
4.039396668	23.37774585
4.041239953	23.40106076
4.043083238	23.42351903
4.045543309	23.45214896
4.04800338	23.47924769
4.049851776	23.49859401
4.051700172	23.51707672
4.054154063	23.54027126
4.056607954	23.56193887
4.058451353	23.57720463
4.060294751	23.59160979
4.062752987	23.60947235
4.065211222	23.62580013
4.067060258	23.63706344
4.068909295	23.64745981
4.071361399	23.65990181
4.073813503	23.67081532
4.075656904	23.6780067
4.077500304	23.6843359
4.079957511	23.69142422
4.082414717	23.69697728
4.08426473	23.70013868
4.086114743	23.70243179
4.08856545	23.70412495
4.091016158	23.70429163
4.092859472	23.70340493
4.094702787	23.70165682
4.097159777	23.69798009
4.099616767	23.69277057
4.101467963	23.68782696
4.103319158	23.68201575
4.105769089	23.67298394
4.10821902	23.66243074
4.110062135	23.65348272
4.111905249	23.64367638
4.114362902	23.62925811
4.116820555	23.61331236
4.118672914	23.60027866
4.120525273	23.58638033
4.122975508	23.56666109
4.125425742	23.54542818
4.127268383	23.52845777
4.129111024	23.51063461
4.131570455	23.4855103
4.134029887	23.45886649
4.135883294	23.43777858
4.137736701	23.41583142
4.140188078	23.38547726
4.142639456	23.3536202
4.144481817	23.32868321
4.146324179	23.30290117
4.148786318	23.26712062
4.151248456	23.22983152
4.153102492	23.20075144
4.154956529	23.1708202
4.15740952	23.12990564
4.159862512	23.08750242
4.161705652	23.05465692
4.163548793	23.02097537
4.16601286	22.97463543
4.168476926	22.92680301
4.170332015	22.88980265
4.172187103	22.85196118
4.174644219	22.80053883
4.177101335	22.7476432
4.178942912	22.7070282
4.180784489	22.6655906
4.183256848	22.60866099
4.185729207	22.55025153
4.1875778	22.50560746
4.189426393	22.46014141
4.191889224	22.39828626
4.194352055	22.33497555
4.196207548	22.28631192
4.198063041	22.23682774
4.200529771	22.16976729
4.2029965	22.10126071
4.204836088	22.04922587
4.206675676	21.99639261
4.209157085	21.9238568
4.211638494	21.84987265
4.213488661	21.79376311
4.215338828	21.73685463
4.217797377	21.65999283
4.220255925	21.58172545
4.222128848	21.52115456
4.224001771	21.45977444
4.226471802	21.37758453
4.228941833	21.29399338
4.230769656	21.2312299
4.232597479	21.16770587
4.235105451	21.07930219
4.237236635	21.00305836
4.239367819	20.92578354
4.241499003	20.84748624
4.243630187	20.76816501
4.245761372	20.68782866
4.247892556	20.60647571
4.25002374	20.52411518
4.252154924	20.44074565
4.254286109	20.35637605
4.256417293	20.27100542
4.258548477	20.18464254
4.260679661	20.09728665
4.262810845	20.00894658
4.26494203	19.91962187
4.267073214	19.82932124
4.269204398	19.7380443
4.271335582	19.64580013
4.273466767	19.55258835
4.275597951	19.45841791
4.277729135	19.36328897
4.279860319	19.26721024
4.282436487	19.14980329
4.284205892	19.06836975
4.285975296	18.9862873
4.288766684	18.85548925
4.29113953	18.7430493
4.293196895	18.64463668
4.29525426	18.54536596
